# xmcd
#
# Track frame offsets:
#  150
#  14410
#  24051
#  36478
#  52437
#  62448
#  72961
#  84706
#  96277
#  111352
#  124964
#  136055
#
# Disc length: 1973 seconds
#
# Revision: 0
# Processed by: cddbd v1.5.1PL2 Copyright (c) Steve Scherf et al.
# Submitted via: Collectorz.com Music Collector 6.9
#
DISCID=a907b30c
DTITLE=Jack Barlow - Jack Barlow I Live The Country Songs I Sing
DYEAR=1900
DGENRE=
TTITLE0=01 - All Night Country Radio
TTITLE1=02 - Too Young To Understand
TTITLE2=03 - Hot Cup Of Coffee
TTITLE3=04 - I Don't Understand
TTITLE4=05 - Wichita Woman
TTITLE5=06 - Music City Yo-Yo
TTITLE6=07 - Shift Or Get Off The Lot
TTITLE7=08 - I've Got The Wants For Honey
TTITLE8=09 - Mighty Man
TTITLE9=10 - Love Don't Last Long
TTITLE10=11 - Texas Sized Heartache
TTITLE11=12 - I Live The Country Songs I Sing
EXTD=
EXTT0=
EXTT1=
EXTT2=
EXTT3=
EXTT4=
EXTT5=
EXTT6=
EXTT7=
EXTT8=
EXTT9=
EXTT10=
EXTT11=
PLAYORDER=
